<?xml version="1.0" encoding="UTF-8"?>
<svg version="1.1" xmlns="http://www.w3.org/2000/svg" width="512" height="512">
<path d="M0 0 C3.93092977 3.02237126 7.49250916 6.4400372 11.04150391 9.89550781 C15.46170921 13.91387627 19.80103639 15.78308301 25.41259766 17.71582031 C65.97131249 32.42853145 104.0975534 59.10274987 130.66259766 93.27832031 C131.45021484 94.26058594 132.23783203 95.24285156 133.04931641 96.25488281 C150.40157981 118.06013908 163.82334447 142.85792065 172.66259766 169.27832031 C172.94184082 170.11169922 173.22108398 170.94507813 173.50878906 171.80371094 C176.50397996 180.90739887 178.99013889 190.0759824 180.91259766 199.46582031 C181.06374023 200.20002197 181.21488281 200.93422363 181.37060547 201.69067383 C184.32027323 217.06989531 185.03761032 232.28033557 184.97509766 247.90332031 C184.9729425 248.8738736 184.97078735 249.84442688 184.96856689 250.84439087 C184.91753105 265.17262929 184.57018204 279.20017813 181.66259766 293.27832031 C181.4639209 294.2613916 181.26524414 295.24446289 181.06054688 296.25732422 C169.53981709 351.65175454 139.62042281 404.20748575 94.66259766 439.27832031 C93.67904297 440.06722656 92.69548828 440.85613281 91.68212891 441.66894531 C69.87538942 459.01747912 45.08228616 472.43930506 18.66259766 481.27832031 C17.82921875 481.55756348 16.99583984 481.83680664 16.13720703 482.12451172 C7.0335191 485.11970262 -2.13506443 487.60586154 -11.52490234 489.52832031 C-12.259104 489.67946289 -12.99330566 489.83060547 -13.74975586 489.98632812 C-29.12897734 492.93599589 -44.3394176 493.65333298 -59.96240234 493.59082031 C-60.93295563 493.58866516 -61.90350891 493.58651001 -62.9034729 493.58428955 C-77.23516205 493.53324142 -91.25430944 493.17307633 -105.33740234 490.27832031 C-106.79605713 489.98828125 -106.79605713 489.98828125 -108.28417969 489.69238281 C-163.6083571 478.38499692 -216.37397152 448.09846301 -251.33740234 403.27832031 C-252.12630859 402.29476563 -252.91521484 401.31121094 -253.72802734 400.29785156 C-271.83345465 377.53971298 -285.12562061 351.81797178 -294.33740234 324.27832031 C-294.5998877 323.49521484 -294.86237305 322.71210938 -295.1328125 321.90527344 C-297.79049328 313.81216055 -299.8046387 305.61850554 -301.52490234 297.27832031 C-301.75753784 296.15925293 -301.75753784 296.15925293 -301.99487305 295.01757812 C-304.99766788 279.58959464 -305.71264001 264.33253723 -305.64990234 248.65332031 C-305.64774719 247.68276703 -305.64559204 246.71221375 -305.64337158 245.71224976 C-305.59233574 231.38401134 -305.24498673 217.35646249 -302.33740234 203.27832031 C-302.13872559 202.29524902 -301.94004883 201.31217773 -301.73535156 200.29931641 C-290.22869385 144.97254798 -260.32506676 92.24772333 -215.33740234 57.27832031 C-214.35513672 56.49070312 -213.37287109 55.70308594 -212.36083984 54.89160156 C-192.84171815 39.35860636 -170.9876515 26.75799818 -147.39990234 18.59082031 C-139.34393645 15.77881411 -134.14565565 13.40402835 -128.58349609 6.82128906 C-97.17556656 -28.73794941 -35.90689393 -25.77230702 0 0 Z " fill="#D3F1F5" transform="translate(316.33740234375,18.7216796875)"/>
<path d="M0 0 C8.62071229 7.42986315 14.75491978 15.53128974 19.3515625 25.9296875 C19.68542969 26.66703125 20.01929688 27.404375 20.36328125 28.1640625 C23.21911845 36.15589151 23.62671063 43.74582438 23.546875 52.18359375 C23.5440451 53.32505356 23.54121521 54.46651337 23.53829956 55.64256287 C23.52717726 59.25921473 23.50208731 62.87561151 23.4765625 66.4921875 C23.46652243 68.95637661 23.45739838 71.42056964 23.44921875 73.88476562 C23.427264 79.89982542 23.39386624 85.91473823 23.3515625 91.9296875 C24.12750763 91.92302567 24.90345276 91.91636383 25.70291138 91.90950012 C33.02966322 91.84928988 40.35629441 91.80366295 47.68322945 91.77425098 C51.44973464 91.75862144 55.21603471 91.73743326 58.98242188 91.70336914 C62.61991252 91.67067815 66.25720635 91.6528141 69.89483261 91.64505577 C71.27986624 91.63952965 72.66488959 91.62873845 74.04983902 91.61249733 C75.99552071 91.59059622 77.94140211 91.58946102 79.88720703 91.58911133 C80.99307159 91.58244949 82.09893616 91.57578766 83.23831177 91.56892395 C88.11340106 92.13384938 91.34858363 93.84538602 94.6640625 97.4296875 C97.40537628 101.49089311 97.47557136 104.57037313 97.47181702 109.3646698 C97.47309865 110.34856728 97.47309865 110.34856728 97.47440618 111.35234147 C97.47605565 113.5541765 97.47054834 115.75593564 97.46508789 117.95776367 C97.46480588 119.53454079 97.46496403 121.11131805 97.4655304 122.68809509 C97.46581782 126.97291622 97.45992993 131.25770946 97.45295644 135.5425241 C97.44671379 140.01885192 97.44611838 144.49518034 97.44493103 148.97151184 C97.44182041 157.45000068 97.43361063 165.92847666 97.42358154 174.40695983 C97.41241207 184.05859733 97.40690785 193.71023544 97.40188611 203.3618778 C97.39142781 223.21782155 97.37383355 243.07375372 97.3515625 262.9296875 C98.10775879 262.91397705 98.86395508 262.8982666 99.64306641 262.88208008 C103.08748826 262.81950703 106.53179024 262.78062545 109.9765625 262.7421875 C111.76126953 262.70448242 111.76126953 262.70448242 113.58203125 262.66601562 C124.65097207 262.57325914 124.65097207 262.57325914 129.3515625 265.9296875 C134.11596762 271.20916344 134.50663889 274.63706178 134.52856445 281.56689453 C134.53513565 282.4614183 134.54170685 283.35594208 134.54847717 284.27757263 C134.56823857 287.24754923 134.57988109 290.21747512 134.58984375 293.1875 C134.59391928 294.20170895 134.5979948 295.21591789 134.60219383 296.26086044 C134.62306992 301.63223824 134.63736314 307.00359039 134.64672852 312.375 C134.65777659 317.91657453 134.69215376 323.45774571 134.73190022 328.99917793 C134.7580863 333.26466605 134.7664223 337.53005854 134.77000999 341.79561996 C134.77487333 343.83769317 134.78648008 345.87976217 134.80504799 347.92175674 C134.82947415 350.78686354 134.8284676 353.65093358 134.8215332 356.51611328 C134.84074829 357.77268486 134.84074829 357.77268486 134.86035156 359.05464172 C134.81203446 364.55602938 134.01667493 369.62853948 130.3515625 373.9296875 C124.06493579 378.79053079 118.1408741 378.49417866 110.40844727 378.43762207 C108.44677911 378.44698201 108.44677911 378.44698201 106.4454813 378.45653105 C102.82616692 378.4731992 99.20727548 378.46498974 95.58795977 378.45258617 C91.68058974 378.4435276 87.77329191 378.4575094 83.86593628 378.46850586 C76.21565581 378.48628708 68.56553238 378.48245289 60.91524577 378.4708553 C54.6974005 378.46181968 48.47959922 378.46059753 42.26174927 378.46495056 C41.37660316 378.46556349 40.49145705 378.46617643 39.57948834 378.46680793 C37.78129918 378.46808684 35.98311004 378.46938369 34.18492091 378.4706983 C17.32552264 378.48210293 0.46621138 378.46899222 -16.39317262 378.44749683 C-30.85753626 378.42962595 -45.32177149 378.43273009 -59.78613281 378.45117188 C-76.58543162 378.47258065 -93.38465418 378.48100431 -110.18396473 378.46872282 C-111.9755179 378.46744863 -113.76707108 378.46619115 -115.55862427 378.46495056 C-116.44008965 378.46433346 -117.32155504 378.46371636 -118.2297315 378.46308056 C-124.4397025 378.45962768 -130.64962511 378.46545466 -136.85958862 378.47486877 C-144.42807187 378.48609021 -151.99638918 378.48304571 -159.56485343 378.4617458 C-163.42602021 378.45123727 -167.2869104 378.44711001 -171.1480751 378.46034241 C-175.3340647 378.47447097 -179.51935663 378.45759507 -183.70532227 378.43762207 C-185.53523036 378.4510064 -185.53523036 378.4510064 -187.40210629 378.46466112 C-194.04036063 378.40307335 -198.27297335 377.9440164 -203.6484375 373.9296875 C-208.01625345 369.12508995 -207.80601532 364.25892069 -207.82543945 358.05541992 C-207.83201065 357.14778397 -207.83858185 356.24014801 -207.84535217 355.30500793 C-207.86507893 352.29838988 -207.87674587 349.29182173 -207.88671875 346.28515625 C-207.89079428 345.25833551 -207.8948698 344.23151478 -207.89906883 343.17357826 C-207.91992604 337.73966294 -207.93422978 332.30577286 -207.94360352 326.87182617 C-207.95467246 321.25946329 -207.98907917 315.64749638 -208.02877522 310.03527355 C-208.05491762 305.7192562 -208.06329321 301.4033336 -208.06688499 297.08724403 C-208.0717564 295.01839839 -208.08338608 292.94955713 -208.10192299 290.8807888 C-208.12626551 287.98425244 -208.12535834 285.08874597 -208.1184082 282.19213867 C-208.13121826 281.33945404 -208.14402832 280.48676941 -208.15722656 279.60824585 C-208.11023719 274.22947926 -207.2014746 271.20781967 -203.6484375 266.9296875 C-199.07404334 262.8015757 -195.97412487 261.80113071 -189.88671875 261.83203125 C-188.76845703 261.83525391 -187.65019531 261.83847656 -186.49804688 261.84179688 C-184.74717773 261.85436523 -184.74717773 261.85436523 -182.9609375 261.8671875 C-181.78208984 261.87169922 -180.60324219 261.87621094 -179.38867188 261.88085938 C-176.47520961 261.89265477 -173.56184887 261.9091148 -170.6484375 261.9296875 C-170.65212467 261.11062109 -170.65581184 260.29155468 -170.65961075 259.44766808 C-170.74795111 239.517263 -170.81414194 219.58689167 -170.85568619 199.65633202 C-170.87631073 190.01804956 -170.90442929 180.37989779 -170.95019531 170.74169922 C-170.99006636 162.34096236 -171.0158711 153.94032015 -171.02479148 145.5394913 C-171.03000578 141.09134684 -171.04225898 136.64347316 -171.07135773 132.1954155 C-171.0985311 128.00769776 -171.10687866 123.82036207 -171.10086823 119.63256454 C-171.10196761 118.09668399 -171.10991027 116.56079051 -171.1252594 115.02498627 C-171.14521869 112.92466864 -171.14035675 110.8257855 -171.12945557 108.72543335 C-171.13314274 107.55106909 -171.13682991 106.37670483 -171.14062881 105.16675377 C-170.34732031 99.94928625 -167.80511093 96.88533596 -163.80819702 93.58306885 C-160.24045947 91.7162082 -158.09487987 91.44394487 -154.09228516 91.47558594 C-152.81141022 91.47588806 -151.53053528 91.47619019 -150.21084595 91.47650146 C-148.82805752 91.49692338 -147.44527556 91.51778729 -146.0625 91.5390625 C-144.6361877 91.54653076 -143.20986508 91.55222093 -141.78353882 91.55621338 C-138.04489388 91.57142402 -134.30687893 91.61066493 -130.56848145 91.6550293 C-126.74756388 91.69608165 -122.92654368 91.71424554 -119.10546875 91.734375 C-111.61950569 91.7771649 -104.13406015 91.84535915 -96.6484375 91.9296875 C-96.65287872 91.31074112 -96.65731995 90.69179474 -96.66189575 90.05409241 C-96.70632675 83.58092571 -96.73638568 77.10780273 -96.75830078 70.63452148 C-96.76832504 68.22239419 -96.78194795 65.81027895 -96.79931641 63.39819336 C-96.82372212 59.9203798 -96.83495668 56.44272767 -96.84375 52.96484375 C-96.85407257 51.89573257 -96.86439514 50.8266214 -96.87503052 49.72511292 C-96.87758647 32.46043143 -90.80219698 17.16579242 -78.8359375 4.6171875 C-74.18325159 0.16893779 -69.36745421 -3.14644222 -63.6484375 -6.0703125 C-62.90851563 -6.45960937 -62.16859375 -6.84890625 -61.40625 -7.25 C-41.9728322 -16.72465566 -16.81370713 -13.14345838 0 0 Z " fill="#FEC344" transform="translate(292.6484375,53.0703125)"/>
<path d="M0 0 C0.90822915 0.00109618 1.8164583 0.00219237 2.75220954 0.00332177 C5.81340733 0.00817515 8.87453673 0.02017765 11.93571472 0.03205872 C14.13534607 0.03693237 16.33497851 0.04132868 18.5346117 0.04528332 C23.28179899 0.05458388 28.02896714 0.0667923 32.77614212 0.08103561 C40.19524312 0.10269965 47.61433728 0.11425183 55.03346252 0.12376404 C86.53902718 0.16628723 118.04450121 0.24674002 149.54996014 0.33735371 C152.68293939 0.34631663 155.81591878 0.35522635 158.94889832 0.36408997 C159.72708087 0.36629365 160.50526342 0.36849733 161.30702726 0.37076779 C174.03890523 0.40650285 186.77078282 0.43118893 199.50269296 0.45198581 C212.67347692 0.47372995 225.84419732 0.5067202 239.01492721 0.55034035 C247.09399769 0.57675391 255.17298948 0.59452455 263.25210098 0.60098483 C269.40641972 0.60685043 275.56059153 0.62840599 281.71484947 0.65591431 C284.2360101 0.66472165 286.75719451 0.66841157 289.2783699 0.66664696 C292.71361411 0.66500091 296.14829808 0.68163406 299.58346558 0.70291138 C300.5831207 0.6980638 301.58277583 0.69321622 302.61272353 0.68822175 C307.89906301 0.74242697 311.67514718 1.10054779 316.22550964 4.10163879 C320.98991476 9.38111474 321.38058603 12.80901307 321.4025116 19.73884583 C321.40908279 20.6333696 321.41565399 21.52789337 321.42242432 22.44952393 C321.44218572 25.41950053 321.45382823 28.38942641 321.46379089 31.35945129 C321.46786642 32.37366024 321.47194195 33.38786919 321.47614098 34.43281174 C321.49701706 39.80418953 321.51131028 45.17554168 321.52067566 50.54695129 C321.53172374 56.08852583 321.5661009 61.62969701 321.60584736 67.17112923 C321.63203344 71.43661734 321.64036944 75.70200984 321.64395714 79.96757126 C321.64882048 82.00964446 321.66042722 84.05171346 321.67899513 86.09370804 C321.70342129 88.95881484 321.70241474 91.82288488 321.69548035 94.68806458 C321.71469543 95.94463615 321.71469543 95.94463615 321.73429871 97.22659302 C321.6859816 102.72798067 320.89062207 107.80049077 317.22550964 112.10163879 C310.93888294 116.96248208 305.01482124 116.66612995 297.28239441 116.60957336 C295.32072626 116.61893331 295.32072626 116.61893331 293.31942844 116.62848234 C289.70011407 116.6451505 286.08122263 116.63694104 282.46190691 116.62453747 C278.55453689 116.61547889 274.64723906 116.62946069 270.73988342 116.64045715 C263.08960296 116.65823838 255.43947952 116.65440419 247.78919291 116.64280659 C241.57134764 116.63377097 235.35354636 116.63254882 229.13569641 116.63690186 C228.2505503 116.63751479 227.3654042 116.63812772 226.45343548 116.63875923 C224.65524632 116.64003813 222.85705718 116.64133499 221.05886805 116.64264959 C204.19946978 116.65405423 187.34015852 116.64094352 170.48077452 116.61944813 C156.01641088 116.60157725 141.55217565 116.60468139 127.08781433 116.62312317 C110.28851552 116.64453194 93.48929296 116.6529556 76.68998241 116.64067411 C74.89842925 116.63939993 73.10687607 116.63814244 71.31532288 116.63690186 C70.43385749 116.63628475 69.5523921 116.63566765 68.64421564 116.63503185 C62.43424464 116.63157897 56.22432203 116.63740596 50.01435852 116.64682007 C42.44587528 116.6580415 34.87755796 116.654997 27.30909371 116.63369709 C23.44792693 116.62318856 19.58703674 116.6190613 15.72587204 116.6322937 C11.53988244 116.64642227 7.35459051 116.62954637 3.16862488 116.60957336 C1.94868615 116.61849625 0.72874743 116.62741914 -0.52815914 116.63661242 C-7.16641348 116.57502465 -11.3990262 116.1159677 -16.77449036 112.10163879 C-21.14230631 107.29704125 -20.93206818 102.43087199 -20.95149231 96.22737122 C-20.95806351 95.31973526 -20.9646347 94.4120993 -20.97140503 93.47695923 C-20.99113179 90.47034117 -21.00279873 87.46377303 -21.01277161 84.45710754 C-21.01684713 83.43028681 -21.02092266 82.40346607 -21.02512169 81.34552956 C-21.0459789 75.91161424 -21.06028264 70.47772415 -21.06965637 65.04377747 C-21.08072532 59.43141458 -21.11513202 53.81944768 -21.15482807 48.20722485 C-21.18097047 43.8912075 -21.18934606 39.57528489 -21.19293785 35.25919533 C-21.19780925 33.19034969 -21.20943894 31.12150843 -21.22797585 29.0527401 C-21.25231836 26.15620373 -21.25141119 23.26069726 -21.24446106 20.36408997 C-21.25727112 19.51140533 -21.27008118 18.6587207 -21.28327942 17.78019714 C-21.23629005 12.40143056 -20.32752746 9.37977097 -16.77449036 5.10163879 C-11.3268058 0.18543566 -7.09936936 -0.03990522 0 0 Z " fill="#FC6930" transform="translate(105.77449035644531,314.8983612060547)"/>
<path d="M0 0 C15.99787066 11.98288731 30.82328565 30.80750971 35.16650391 50.60327148 C36.3685037 55.87420301 37.46091638 59.75992486 42.05029297 62.95605469 C44.90604593 64.67190626 47.85386513 66.17907758 50.82373047 67.68652344 C64.83297967 74.79987996 76.96276613 85.76697577 88.09228516 96.71240234 C89.43644333 98.02977938 90.80395386 99.32324592 92.17529297 100.61230469 C98.74355057 106.89044491 104.18690339 113.98387103 109.63623047 121.22558594 C110.06581055 121.78906738 110.49539063 122.35254883 110.93798828 122.93310547 C128.67637711 146.30435449 140.22940939 173.29572378 146.94873047 201.72558594 C147.21580811 202.84852051 147.48288574 203.97145508 147.75805664 205.12841797 C149.00685449 210.60799656 149.98364525 215.60231407 149.63623047 221.22558594 C150.91240234 221.20238281 152.18857422 221.17917969 153.50341797 221.15527344 C155.17268297 221.13651765 156.84195427 221.11831725 158.51123047 221.10058594 C159.35298828 221.08382812 160.19474609 221.06707031 161.06201172 221.04980469 C161.86767578 221.04335937 162.67333984 221.03691406 163.50341797 221.03027344 C164.61885986 221.01456299 164.61885986 221.01456299 165.75683594 220.99853516 C167.63623047 221.22558594 167.63623047 221.22558594 169.63623047 223.22558594 C170.41737992 227.42111444 169.52992966 229.77829786 167.21435547 233.18652344 C166.11957693 234.66877035 165.0092492 236.13961883 163.88623047 237.60058594 C163.30583008 238.37845459 162.72542969 239.15632324 162.12744141 239.95776367 C160.91654445 241.5772646 159.69931829 243.19205087 158.47607422 244.80224609 C156.68154446 247.16590087 154.90598342 249.5425607 153.13623047 251.92480469 C144.990685 262.87113141 144.990685 262.87113141 143.63623047 264.22558594 C140.82373047 264.55761719 140.82373047 264.55761719 137.63623047 264.22558594 C135.57373047 262.48730469 135.57373047 262.48730469 133.63623047 259.91308594 C132.87955078 258.92308594 132.12287109 257.93308594 131.34326172 256.91308594 C130.44014482 255.68448722 129.53788676 254.45525698 128.63623047 253.22558594 C127.45338119 251.64169636 126.26973474 250.05840191 125.08544922 248.47558594 C121.56739321 243.7505956 118.06889762 239.01307655 114.63623047 234.22558594 C114.2052002 233.62721924 113.77416992 233.02885254 113.33007812 232.41235352 C110.63623047 228.55259156 110.63623047 228.55259156 110.63623047 225.53808594 C111.89670874 222.62322994 112.87790575 221.80305922 115.63623047 220.22558594 C119.08935547 219.93261719 119.08935547 219.93261719 122.88623047 220.03808594 C124.14951172 220.06515625 125.41279297 220.09222656 126.71435547 220.12011719 C127.67857422 220.15492188 128.64279297 220.18972656 129.63623047 220.22558594 C123.43491584 190.41212287 114.04620914 161.93649422 95.63623047 137.22558594 C95.2361377 136.68708008 94.83604492 136.14857422 94.42382812 135.59375 C79.67862525 115.90023214 62.55531718 99.30001513 41.63623047 86.22558594 C41.30623047 99.42558594 40.97623047 112.62558594 40.63623047 126.22558594 C27.10623047 126.22558594 13.57623047 126.22558594 -0.36376953 126.22558594 C-0.40115234 122.59945312 -0.43853516 118.97332031 -0.47705078 115.23730469 C-0.52336219 111.69582345 -0.57456094 108.1544439 -0.6262207 104.61303711 C-0.65931933 102.16616072 -0.68739732 99.71921075 -0.71020508 97.2722168 C-0.74402887 93.73942935 -0.7963587 90.20730719 -0.85205078 86.67480469 C-0.86163567 85.05381111 -0.86163567 85.05381111 -0.87141418 83.40007019 C-1.16999759 67.70852846 -6.54265646 54.3476455 -16.36376953 42.22558594 C-16.88583984 41.57589844 -17.40791016 40.92621094 -17.94580078 40.25683594 C-27.82182671 29.25569313 -42.66232896 24.22668844 -56.99658203 22.88574219 C-73.95894772 22.4114031 -88.84772452 27.26541789 -101.19824219 38.91064453 C-115.03513032 52.57244051 -119.38766299 68.17248782 -119.68017578 87.06542969 C-119.71134743 88.74857018 -119.71134743 88.74857018 -119.7431488 90.4657135 C-119.80825583 94.03144519 -119.86734794 97.59724721 -119.92626953 101.16308594 C-119.96949172 103.58822326 -120.01310717 106.01335362 -120.05712891 108.43847656 C-120.16463324 114.36744215 -120.26399557 120.29646511 -120.36376953 126.22558594 C-133.89376953 126.22558594 -147.42376953 126.22558594 -161.36376953 126.22558594 C-161.69376953 113.02558594 -162.02376953 99.82558594 -162.36376953 86.22558594 C-174.26107519 94.15712304 -184.93911992 102.53555929 -195.36376953 112.22558594 C-196.36150391 113.14210937 -196.36150391 113.14210937 -197.37939453 114.07714844 C-222.51023341 138.08425062 -239.90506184 172.63312944 -247.37939453 206.22949219 C-248.50808515 209.66483229 -249.80827716 211.67469806 -252.36376953 214.22558594 C-255.35486942 215.38671058 -258.17751485 215.53228425 -261.36376953 215.22558594 C-264.2852037 213.46055279 -265.8430077 212.26710959 -267.36376953 209.22558594 C-268.25363836 201.293325 -266.33720334 194.34430124 -263.92626953 186.85058594 C-263.38655518 185.14418945 -263.38655518 185.14418945 -262.8359375 183.40332031 C-248.07195093 137.99721758 -218.2993406 98.62797831 -178.73876953 71.97558594 C-177.8039978 71.34378418 -177.8039978 71.34378418 -176.8503418 70.69921875 C-173.92287781 68.76267733 -171.11384968 67.10801001 -167.92626953 65.60839844 C-163.06643588 63.30950654 -160.08862302 61.80692053 -157.79345703 56.79980469 C-156.92783515 54.07461051 -156.23450491 51.31485599 -155.53955078 48.54199219 C-149.81987488 26.0526918 -131.71567734 6.06339175 -112.36376953 -5.77441406 C-77.01649467 -25.7160563 -32.94095787 -23.71748967 0 0 Z " fill="#3692BC" transform="translate(316.36376953125,18.7744140625)"/>
<path d="M0 0 C8.62071229 7.42986315 14.75491978 15.53128974 19.3515625 25.9296875 C19.68542969 26.66703125 20.01929688 27.404375 20.36328125 28.1640625 C27.60457334 48.42823167 23.3515625 71.25930641 23.3515625 91.9296875 C-16.2484375 91.9296875 -55.8484375 91.9296875 -96.6484375 91.9296875 C-96.6484375 23.29654386 -96.6484375 23.29654386 -78.8359375 4.6171875 C-74.18325159 0.16893779 -69.36745421 -3.14644222 -63.6484375 -6.0703125 C-62.90851563 -6.45960937 -62.16859375 -6.84890625 -61.40625 -7.25 C-41.9728322 -16.72465566 -16.81370713 -13.14345838 0 0 Z " fill="#D3F1F5" transform="translate(292.6484375,53.0703125)"/>
<path d="M0 0 C1.75185104 0.00848969 1.75185104 0.00848969 3.53909302 0.01715088 C7.25825504 0.03948744 10.97644312 0.08968158 14.6953125 0.140625 C17.22134022 0.16069339 19.74738309 0.17894356 22.2734375 0.1953125 C28.45605978 0.23934347 34.63811654 0.30622969 40.8203125 0.390625 C39.8303125 1.050625 38.8403125 1.710625 37.8203125 2.390625 C33.76031432 6.15355014 31.05301868 8.74504373 30.55859947 14.36597824 C30.55030334 16.1192285 30.55030334 16.1192285 30.5418396 17.90789795 C30.53605392 18.55903061 30.53026825 19.21016327 30.52430725 19.88102722 C30.50728943 22.06754447 30.50444005 24.25385146 30.50146484 26.44042969 C30.49205443 28.03287901 30.48177535 29.6253234 30.4706974 31.21776199 C30.44342294 35.48349274 30.42804322 39.74918896 30.41511536 44.01498413 C30.40118709 48.01736024 30.37654767 52.01964234 30.3527832 56.02197266 C30.28952351 67.72813686 30.24347034 79.43438893 30.1953125 91.140625 C30.0715625 117.293125 29.9478125 143.445625 29.8203125 170.390625 C101.1003125 170.390625 172.3803125 170.390625 245.8203125 170.390625 C245.8203125 170.720625 245.8203125 171.050625 245.8203125 171.390625 C215.14467866 171.41351383 184.46904681 171.4311738 153.79340646 171.44169033 C150.15914596 171.44294081 146.52488547 171.44423515 142.890625 171.44555664 C141.80550317 171.44595011 141.80550317 171.44595011 140.69845968 171.44635152 C129.03612382 171.45068453 117.37379296 171.45855885 105.71146005 171.4677778 C93.71513283 171.47718058 81.7188082 171.48269453 69.72247744 171.48471349 C62.99685946 171.48595392 56.27125347 171.48902549 49.54563904 171.49635506 C43.19603823 171.5032178 36.84645322 171.50522143 30.49684906 171.50373268 C28.18484664 171.50400445 25.8728436 171.50594805 23.56084442 171.50983047 C8.28850899 171.53418619 -6.92582742 171.15140018 -22.1796875 170.390625 C-22.27313213 149.63288417 -22.34366737 128.87517802 -22.38693619 108.11726952 C-22.40756073 98.47898706 -22.43567929 88.84083529 -22.48144531 79.20263672 C-22.52131636 70.80189986 -22.5471211 62.40125765 -22.55604148 54.0004288 C-22.56125578 49.55228434 -22.57350898 45.10441066 -22.60260773 40.656353 C-22.6297811 36.46863526 -22.63812866 32.28129957 -22.63211823 28.09350204 C-22.63321761 26.55762149 -22.64116027 25.02172801 -22.6565094 23.48592377 C-22.67646869 21.38560614 -22.67160675 19.286723 -22.66070557 17.18637085 C-22.66439274 16.01200659 -22.66807991 14.83764233 -22.67187881 13.62769127 C-21.90238263 8.56683368 -19.34450524 5.49076873 -15.69091797 2.04003906 C-10.48069999 -0.40748094 -5.68430566 -0.10400502 0 0 Z " fill="#FDB037" transform="translate(144.1796875,144.609375)"/>
<path d="M0 0 C88.11 0 176.22 0 267 0 C261.36501753 5.63498247 261.36501753 5.63498247 258.13671875 7.796875 C257.42346436 8.27600342 256.71020996 8.75513184 255.9753418 9.2487793 C255.220354 9.74418213 254.46536621 10.23958496 253.6875 10.75 C252.49217651 11.53661011 252.49217651 11.53661011 251.27270508 12.33911133 C206.99357499 41.1774492 150.16066749 56.46995078 97.54785156 45.54785156 C96.70706055 45.36706055 95.86626953 45.18626953 95 45 C94.02514648 44.79600586 93.05029297 44.59201172 92.04589844 44.38183594 C59.10274696 37.35982382 26.74360271 24.25885108 1 2 C0.67 1.34 0.34 0.68 0 0 Z " fill="#05BED7" transform="translate(123,431)"/>
<path d="M0 0 C12.43162664 -0.570749 22.82906793 4.54461962 31.97265625 12.625 C41.68770117 23.65288883 45.86127538 33.50388908 45.55859375 48.328125 C44.85094081 58.47789004 40.69661401 66.48876166 34.28515625 74.25 C33.59808594 74.79503174 32.91101563 75.34006348 32.203125 75.90161133 C29.56568006 79.13093705 29.75344655 81.99415083 29.81640625 85.98046875 C29.80935669 86.73032547 29.80230713 87.48018219 29.79504395 88.25276184 C29.76567796 91.44774366 29.78208118 94.64210984 29.79443359 97.8371582 C29.8051536 108.26879213 29.23615432 116.11914092 23.47265625 125.0625 C16.111259 132.42389725 7.75099206 132.64112145 -2.06469727 132.70532227 C-9.24543794 132.57447929 -14.39779225 131.36471127 -19.71484375 126.25 C-25.44509432 120.10750119 -27.00706464 113.63733666 -26.84765625 105.32421875 C-26.84846304 103.78971154 -26.85112566 102.2552044 -26.85546875 100.72070312 C-26.85350937 98.33050552 -26.83994498 95.94275934 -26.79394531 93.55297852 C-26.39653394 82.43405599 -26.39653394 82.43405599 -31.58984375 72.9609375 C-32.64171875 72.03547119 -32.64171875 72.03547119 -33.71484375 71.09130859 C-39.87378179 65.42105582 -42.38975091 56.09156126 -42.93359375 47.9921875 C-43.3020256 33.77685863 -39.29984433 22.93682084 -29.52734375 12.5 C-20.79277967 4.23362026 -11.76072926 1.08300241 0 0 Z " fill="#FEE076" transform="translate(254.71484375,174.75)"/>
<path d="M0 0 C1.6207972 0.00848969 1.6207972 0.00848969 3.27433777 0.01715088 C6.71850264 0.03950457 10.1616194 0.08970109 13.60546875 0.140625 C15.94334433 0.16069121 18.28123625 0.17894177 20.61914062 0.1953125 C26.34410636 0.23936605 32.06846267 0.30626879 37.79296875 0.390625 C37.0040625 1.00808594 36.21515625 1.62554687 35.40234375 2.26171875 C32.00465338 5.03378649 30.17934897 7.23148435 28.79296875 11.390625 C28.68592803 14.32576654 28.63569931 17.23750909 28.63183594 20.1730957 C28.62687103 21.07097809 28.62190613 21.96886047 28.61679077 22.89395142 C28.60217075 25.86811079 28.59536727 28.84221682 28.58984375 31.81640625 C28.58409201 33.88282778 28.57833428 35.94924928 28.5725708 38.01567078 C28.56206116 42.35086313 28.5562183 46.68603693 28.55273438 51.02124023 C28.54725086 56.57299773 28.52322561 62.12450982 28.49476242 67.67619038 C28.47612732 71.94588433 28.47092996 76.21551929 28.4693985 80.48525047 C28.46637324 82.53175383 28.45834898 84.57825618 28.44521332 86.62471962 C28.42813539 89.48999252 28.43003745 92.35466738 28.43652344 95.2199707 C28.42730865 96.0633046 28.41809387 96.90663849 28.40859985 97.77552795 C28.44363963 102.72354939 29.07465803 106.09022908 31.79296875 110.390625 C34.0165638 112.17140562 36.20806024 113.12255668 38.79296875 114.390625 C38.79296875 114.720625 38.79296875 115.050625 38.79296875 115.390625 C32.08533733 115.49233178 25.37790596 115.56221905 18.66967773 115.61035156 C16.3893287 115.6304242 14.10903086 115.65768843 11.82885742 115.69238281 C8.54463033 115.74109109 5.26108583 115.76363786 1.9765625 115.78125 C0.45584389 115.81221771 0.45584389 115.81221771 -1.09559631 115.84381104 C-7.37249278 115.84578549 -11.0826326 115.0861254 -16.20703125 111.390625 C-20.5748472 106.58602745 -20.36460907 101.71985819 -20.3840332 95.51635742 C-20.3906044 94.60872147 -20.3971756 93.70108551 -20.40394592 92.76594543 C-20.42367268 89.75932738 -20.43533962 86.75275923 -20.4453125 83.74609375 C-20.44938803 82.71927301 -20.45346355 81.69245228 -20.45766258 80.63451576 C-20.47851979 75.20060044 -20.49282353 69.76671036 -20.50219727 64.33276367 C-20.51326621 58.72040079 -20.54767292 53.10843388 -20.58736897 47.49621105 C-20.61351137 43.1801937 -20.62188696 38.8642711 -20.62547874 34.54818153 C-20.63035015 32.47933589 -20.64197983 30.41049463 -20.66051674 28.3417263 C-20.68485926 25.44518994 -20.68395209 22.54968347 -20.67700195 19.65307617 C-20.68981201 18.80039154 -20.70262207 17.94770691 -20.71582031 17.06918335 C-20.65806965 10.4585959 -18.50647994 7.02780093 -14.1574707 2.04003906 C-9.56783919 -0.52574915 -5.16719196 -0.1019852 0 0 Z " fill="#FC5426" transform="translate(105.20703125,315.609375)"/>
<path d="M0 0 C18.3947415 7.3578966 34.4718505 20.96212109 48.57275391 34.61962891 C49.91586018 35.91862358 51.27577542 37.20017391 52.63671875 38.48046875 C59.51382121 45.09846531 65.28703199 52.38546821 71 60 C71.42812988 60.56203125 71.85625977 61.1240625 72.29736328 61.703125 C90.03828005 85.07553709 101.59258039 112.0676054 108.3125 140.5 C108.71311646 142.18440186 108.71311646 142.18440186 109.12182617 143.90283203 C110.37062402 149.38241063 111.34741478 154.37672813 111 160 C112.27617187 159.97679687 113.55234375 159.95359375 114.8671875 159.9296875 C116.5364525 159.91093171 118.2057238 159.89273131 119.875 159.875 C120.71675781 159.85824219 121.55851562 159.84148437 122.42578125 159.82421875 C123.23144531 159.81777344 124.03710938 159.81132812 124.8671875 159.8046875 C125.61081543 159.79421387 126.35444336 159.78374023 127.12060547 159.77294922 C129 160 129 160 131 162 C131.78114945 166.1955285 130.89369919 168.55271192 128.578125 171.9609375 C127.48334646 173.44318441 126.37301873 174.91403289 125.25 176.375 C124.66959961 177.15286865 124.08919922 177.9307373 123.49121094 178.73217773 C122.28031398 180.35167866 121.06308782 181.96646494 119.83984375 183.57666016 C118.04531399 185.94031493 116.26975295 188.31697477 114.5 190.69921875 C106.35445453 201.64554547 106.35445453 201.64554547 105 203 C102.1875 203.33203125 102.1875 203.33203125 99 203 C96.9375 201.26171875 96.9375 201.26171875 95 198.6875 C94.24332031 197.6975 93.48664063 196.7075 92.70703125 195.6875 C91.80391435 194.45890129 90.90165629 193.22967104 90 192 C88.81715072 190.41611042 87.63350427 188.83281597 86.44921875 187.25 C82.93116274 182.52500966 79.43266715 177.78749062 76 173 C75.56896973 172.4016333 75.13793945 171.8032666 74.69384766 171.18676758 C72 167.32700562 72 167.32700562 72 164.3125 C73.26047827 161.397644 74.24167528 160.57747329 77 159 C80.453125 158.70703125 80.453125 158.70703125 84.25 158.8125 C85.51328125 158.83957031 86.7765625 158.86664063 88.078125 158.89453125 C89.04234375 158.92933594 90.0065625 158.96414062 91 159 C84.79868537 129.18653694 75.40997867 100.71090828 57 76 C56.59990723 75.46149414 56.19981445 74.92298828 55.78759766 74.36816406 C41.04239478 54.6746462 23.91908671 38.07442919 3 25 C2.67 38.2 2.34 51.4 2 65 C1.67 65 1.34 65 1 65 C0.67 43.55 0.34 22.1 0 0 Z " fill="#06BDD6" transform="translate(355,80)"/>
<path d="M0 0 C9.03130979 4.67926558 14.27449309 9.99891377 18.5625 19.1875 C20.49058243 28.12679127 19.47027669 36.24204696 15.25 44.375 C12.72725582 47.91620703 10.10559294 51.43881753 6.17016602 53.42431641 C3.62117842 56.01381557 3.76638841 58.16063583 3.72129822 61.68527222 C3.72948074 62.52905426 3.73766327 63.3728363 3.74609375 64.2421875 C3.73667252 65.11392609 3.72725128 65.98566467 3.71754456 66.88381958 C3.68884072 69.67278454 3.68581779 72.46089911 3.6875 75.25 C3.68389098 78.03183605 3.6743262 80.81305048 3.64674377 83.59475708 C3.62997647 85.32536997 3.62706332 87.05618714 3.63975525 88.78683472 C3.59901057 93.46761448 3.31482211 96.59219038 0.25 100.375 C-3.43703143 102.83302095 -6.35174091 102.77785195 -10.625 102.8125 C-11.33269531 102.84537109 -12.04039062 102.87824219 -12.76953125 102.91210938 C-16.80949302 102.95348701 -18.52999919 102.55444363 -21.6953125 99.97265625 C-25.19593576 95.54696334 -24.81029705 92.19270271 -24.71484375 86.74609375 C-24.70880915 84.9707104 -24.70564813 83.19531539 -24.70507812 81.41992188 C-24.70336564 78.62294434 -24.68790942 75.83021707 -24.62329102 73.03393555 C-24.05775223 62.07677343 -24.05775223 62.07677343 -27.95727539 52.24194336 C-30.56666809 49.84482641 -30.56666809 49.84482641 -33.34960938 48.04638672 C-37.93858308 44.85109441 -39.66430011 39.73440947 -40.75 34.375 C-41.66039206 24.19651824 -40.0217715 16.15297932 -33.625 8.0625 C-25.29710743 -0.8422163 -11.46067778 -4.81188736 0 0 Z " fill="#3892BB" transform="translate(266.75,190.625)"/>
<path d="M0 0 C65.34 0 130.68 0 198 0 C194.58140804 2.73487357 192.32686329 4.52738627 188.5859375 6.33203125 C187.33478149 6.93615845 187.33478149 6.93615845 186.05834961 7.55249023 C184.73009155 8.17619507 184.73009155 8.17619507 183.375 8.8125 C182.45146729 9.24828369 181.52793457 9.68406738 180.57641602 10.13305664 C164.99156437 17.36503412 149.33469064 22.53654631 132.4375 25.625 C131.76509277 25.74842773 131.09268555 25.87185547 130.39990234 25.99902344 C84.49796863 33.97524393 40.18160349 23.22593176 0 1 C0 0.67 0 0.34 0 0 Z " fill="#D2F1F5" transform="translate(157,431)"/>
<path d="M0 0 C0.85879268 20.0563368 0.85879268 20.0563368 -3.53759766 26.12109375 C-7.4713097 29.70995749 -12.08750504 32.16841387 -16.74902344 34.68896484 C-20.29974845 36.75701184 -23.30945258 39.34341769 -26.375 42.0625 C-26.94549072 42.56249512 -27.51598145 43.06249023 -28.10375977 43.57763672 C-38.21593669 52.53668348 -47.02859857 62.11947828 -55 73 C-55.41604492 73.56638184 -55.83208984 74.13276367 -56.26074219 74.71630859 C-71.42247095 95.66738898 -82.40015924 119.76296066 -88.015625 145.00390625 C-89.14431562 148.43924636 -90.44450763 150.44911212 -93 153 C-95.99109988 154.16112464 -98.81374532 154.30669831 -102 154 C-104.92143417 152.23496686 -106.47923817 151.04152365 -108 148 C-108.88986883 140.06773907 -106.97343381 133.1187153 -104.5625 125.625 C-104.20269043 124.48740234 -103.84288086 123.34980469 -103.47216797 122.17773438 C-92.20542382 87.52727329 -45.01722821 0 0 0 Z " fill="#05BED7" transform="translate(157,80)"/>
<path d="M0 0 C1.10859375 0.00322266 2.2171875 0.00644531 3.359375 0.00976562 C4.50148438 0.01814453 5.64359375 0.02652344 6.8203125 0.03515625 C8.56828125 0.04192383 8.56828125 0.04192383 10.3515625 0.04882812 C13.21619895 0.06056844 16.08072883 0.07699055 18.9453125 0.09765625 C15.92145086 2.11356401 13.66512768 2.63649177 10.14550781 3.28759766 C-14.20684651 7.84407554 -35.84613457 22.38976131 -50.16064453 42.59301758 C-63.23075649 61.9517694 -68.02054119 81.43348472 -68.37109375 104.66796875 C-68.39187485 105.83020966 -68.41265594 106.99245056 -68.43406677 108.18991089 C-68.4989472 111.86743814 -68.55815853 115.54503089 -68.6171875 119.22265625 C-68.66043134 121.73047526 -68.70404741 124.23828788 -68.74804688 126.74609375 C-68.85525833 132.86321541 -68.95478779 138.98039342 -69.0546875 145.09765625 C-76.9746875 145.09765625 -84.8946875 145.09765625 -93.0546875 145.09765625 C-93.12410203 137.86054889 -93.18367136 130.624628 -93.21948242 123.38745117 C-93.23443398 120.93298395 -93.25480259 118.47854281 -93.28100586 116.02416992 C-93.64162031 81.34154529 -86.33390444 52.53553186 -62.1796875 26.72265625 C-45.72964701 11.38730023 -22.84565819 -0.11776112 0 0 Z " fill="#0782AF" transform="translate(248.0546875,-0.09765625)"/>
<path d="M0 0 C1.79101562 1.43579102 1.79101562 1.43579102 3.40625 3.44140625 C4.00179687 4.17375488 4.59734375 4.90610352 5.2109375 5.66064453 C8.0478896 9.37020717 10.80727734 13.12196203 13.5 16.9375 C17.46264363 22.51638777 21.44169722 27.99682705 25.92578125 33.17578125 C27.37484839 35.63656073 27.40629381 37.19166146 27 40 C26.01171875 41.80078125 26.01171875 41.80078125 24 43 C21.18872957 43.21714241 18.6116655 43.28284276 15.8125 43.1875 C15.06291016 43.17396484 14.31332031 43.16042969 13.54101562 43.14648438 C11.69370233 43.11118539 9.84675934 43.05737917 8 43 C8.68839224 46.04561415 9.38741683 49.08829601 10.09765625 52.12890625 C10.681496 54.63360404 11.25267321 57.14130169 11.80859375 59.65234375 C13.70171219 67.80537383 16.14962234 75.62812271 19 83.5 C19.49826294 84.87949829 19.49826294 84.87949829 20.0065918 86.28686523 C21.75274818 91.14232343 21.75274818 91.14232343 24.00189209 95.77429199 C26.93291154 101.03452832 27.54672233 105.12123775 27.390625 111.09375 C27.38496521 111.92588013 27.37930542 112.75801025 27.37347412 113.61535645 C27.35128184 116.2441841 27.30112133 118.87159217 27.25 121.5 C27.22991268 123.29425099 27.21166584 125.08852359 27.1953125 126.8828125 C27.15147383 131.25574602 27.08256939 135.62763328 27 140 C23.21491907 136.32163466 20.32290624 132.68080288 17.6875 128.125 C17.30215088 127.4664502 16.91680176 126.80790039 16.51977539 126.12939453 C15.33619744 124.09202064 14.16750586 122.04661589 13 120 C12.65001953 119.39865234 12.30003906 118.79730469 11.93945312 118.17773438 C-0.03883674 97.50886184 -12.66266999 68.33471463 -12 44 C-13.66289063 44.06960938 -13.66289063 44.06960938 -15.359375 44.140625 C-16.82288968 44.17815102 -18.28643356 44.21455029 -19.75 44.25 C-20.47960938 44.28351563 -21.20921875 44.31703125 -21.9609375 44.3515625 C-25.393794 44.41397807 -27.6241661 44.23005591 -30.578125 42.421875 C-32 40 -32 40 -32.15234375 36.78515625 C-30.61119593 31.72287749 -27.91496656 28.46420807 -24.5625 24.4375 C-23.28534595 22.85611359 -22.01062967 21.27275548 -20.73828125 19.6875 C-20.10615723 18.90375 -19.4740332 18.12 -18.82275391 17.3125 C-15.72124715 13.37766581 -12.86061453 9.27866957 -10.02172852 5.15209961 C-7.0060418 0.82026385 -5.38553984 -0.57767536 0 0 Z " fill="#06BCD5" transform="translate(58,251)"/>
<path d="M0 0 C17.95252254 -0.91672456 33.52639087 2.96930852 47.25 15.1875 C57.05951011 24.34532937 65.50569047 37.94561818 66.12025452 51.68928528 C66.11803391 52.65525131 66.11581329 53.62121735 66.11352539 54.61645508 C66.11341209 56.26760063 66.11341209 56.26760063 66.11329651 57.95210266 C66.10813522 59.1293541 66.10297394 60.30660553 66.09765625 61.51953125 C66.0962413 62.73323898 66.09482635 63.94694672 66.09336853 65.19743347 C66.08777665 69.06914752 66.07522558 72.94080347 66.0625 76.8125 C66.05748395 79.43945229 66.05292123 82.06640549 66.04882812 84.69335938 C66.03780987 91.12892859 66.02055075 97.56445445 66 104 C58.41 104 50.82 104 43 104 C42.96261719 100.37386719 42.92523438 96.74773437 42.88671875 93.01171875 C42.84040734 89.47023752 42.7892086 85.92885796 42.73754883 82.38745117 C42.7044502 79.94057478 42.67637222 77.49362481 42.65356445 75.04663086 C42.61974066 71.51384341 42.56741083 67.98172125 42.51171875 64.44921875 C42.50532883 63.36855637 42.4989389 62.28789398 42.49235535 61.17448425 C42.19377194 45.48294252 36.82111307 32.12205956 27 20 C26.21689453 19.02546875 26.21689453 19.02546875 25.41796875 18.03125 C18.57912514 10.41329763 8.31797213 5.85079461 -1 2 C-0.67 1.34 -0.34 0.68 0 0 Z " fill="#0681AF" transform="translate(273,41)"/>
<path d="M0 0 C1.63001953 0.01353516 1.63001953 0.01353516 3.29296875 0.02734375 C4.12441406 0.03894531 4.95585937 0.05054688 5.8125 0.0625 C6.3075 1.0525 6.3075 1.0525 6.8125 2.0625 C5.85150391 2.4646875 5.85150391 2.4646875 4.87109375 2.875 C-3.05578065 6.4663112 -7.51019275 10.83062725 -12.125 18.125 C-14.90738757 25.70700612 -14.24205775 35.3547868 -11.3125 42.75 C-10.63522008 44.20238916 -9.92896663 45.64180665 -9.1875 47.0625 C-8.85105469 47.79210937 -8.51460937 48.52171875 -8.16796875 49.2734375 C-6.88628162 51.61213354 -5.56732942 51.90658286 -3.1875 53.0625 C-0.56862217 55.07821254 1.49644002 56.68907493 2.26223755 60.01681519 C2.42050067 62.3873266 2.42605367 64.71450994 2.37890625 67.08984375 C2.38454086 67.95638077 2.39017548 68.82291779 2.39598083 69.7157135 C2.4124065 72.47769575 2.39691431 75.23807392 2.375 78 C2.35837414 80.75820646 2.34935747 83.51535142 2.36473083 86.27357483 C2.37396764 87.98649955 2.36499054 89.69964948 2.33509827 91.41233826 C2.36021454 96.91407427 3.32823435 99.77540022 6.8125 104.0625 C4.41475255 104.19822155 2.02474755 104.29686868 -0.375 104.375 C-1.04853516 104.41689453 -1.72207031 104.45878906 -2.41601562 104.50195312 C-6.40586318 104.59926648 -7.9864502 104.22704409 -11.11328125 101.66796875 C-14.63724466 97.24144597 -14.24802025 93.89293902 -14.15234375 88.43359375 C-14.14630915 86.6582104 -14.14314813 84.88281539 -14.14257812 83.10742188 C-14.14086564 80.31044434 -14.12540942 77.51771707 -14.06079102 74.72143555 C-13.49525223 63.76427343 -13.49525223 63.76427343 -17.39477539 53.92944336 C-20.00416809 51.53232641 -20.00416809 51.53232641 -22.78710938 49.73388672 C-27.37608308 46.53859441 -29.10180011 41.42190947 -30.1875 36.0625 C-31.09789206 25.88401824 -29.4592715 17.84047932 -23.0625 9.75 C-16.98220929 3.24856361 -8.78608825 -0.09447407 0 0 Z " fill="#057497" transform="translate(256.1875,188.9375)"/>
<path d="M0 0 C2.05859375 0.69140625 2.05859375 0.69140625 4.62109375 2.62890625 C9.09988711 12.17068341 4.3211017 22.4147305 1.05859375 31.69140625 C0.80158691 32.44131836 0.54458008 33.19123047 0.27978516 33.96386719 C-16.03701311 81.42181082 -16.03701311 81.42181082 -29.94140625 90.69140625 C-31.50973796 51.12722275 -31.50973796 51.12722275 -22.99755859 36.69726562 C-21.00503032 32.91302792 -19.85678808 28.83667278 -18.62890625 24.75390625 C-18.38188965 23.95428467 -18.13487305 23.15466309 -17.88037109 22.33081055 C-16.57058478 18.02187535 -15.46034131 13.70430578 -14.44140625 9.31640625 C-13.56537478 6.0841522 -12.68921805 3.84015042 -10.31640625 1.44140625 C-6.41753122 -0.58023265 -4.25262445 -0.79602245 0 0 Z " fill="#06BED7" transform="translate(456.94140625,300.30859375)"/>
<path d="M0 0 C3.5625 0.3125 3.5625 0.3125 5.2734375 1.4453125 C7.14099901 4.15044705 6.85469531 6.25444543 6.75 9.5 C6.72292969 10.58667969 6.69585937 11.67335938 6.66796875 12.79296875 C6.63316406 13.62441406 6.59835937 14.45585937 6.5625 15.3125 C7.13097656 14.93996094 7.69945312 14.56742187 8.28515625 14.18359375 C12.28738238 11.73147858 14.71369316 10.3125 19.5 10.3125 C22.5625 11.3125 22.5625 11.3125 24.5625 14.3125 C24.6875 16.625 24.6875 16.625 23.5625 19.3125 C20.52385804 22.07187946 17.23737517 24.47506241 13.5625 26.3125 C14.62791016 26.96605469 14.62791016 26.96605469 15.71484375 27.6328125 C16.63394531 28.22835938 17.55304688 28.82390625 18.5 29.4375 C19.41652344 30.01757812 20.33304687 30.59765625 21.27734375 31.1953125 C23.5625 33.3125 23.5625 33.3125 24.4765625 36.40234375 C24.5625 39.3125 24.5625 39.3125 23 41.75 C20.5625 43.3125 20.5625 43.3125 17.75 43.3125 C13.91720289 42.11005385 10.97381234 40.42751365 7.5625 38.3125 C7.53671875 39.06015625 7.5109375 39.8078125 7.484375 40.578125 C7.02198718 48.60685897 7.02198718 48.60685897 4.8125 52 C2.084071 53.59158358 0.66933426 53.87013692 -2.4375 53.3125 C-4.078125 52.203125 -4.078125 52.203125 -5.4375 50.3125 C-5.73046875 47.17578125 -5.73046875 47.17578125 -5.625 43.625 C-5.59792969 42.44550781 -5.57085937 41.26601563 -5.54296875 40.05078125 C-5.50816406 39.14714844 -5.47335937 38.24351562 -5.4375 37.3125 C-6.08976562 37.75722656 -6.74203125 38.20195312 -7.4140625 38.66015625 C-14.59923121 43.3125 -14.59923121 43.3125 -18.9375 43.3125 C-21.4375 42.3125 -21.4375 42.3125 -23.4375 40.3125 C-24.1875 37.125 -24.1875 37.125 -23.4375 33.3125 C-20.36365881 30.53959431 -17.0002686 28.40562655 -13.4375 26.3125 C-14.07558594 25.89097656 -14.71367187 25.46945312 -15.37109375 25.03515625 C-16.19738281 24.48730469 -17.02367187 23.93945312 -17.875 23.375 C-19.11056641 22.55708984 -19.11056641 22.55708984 -20.37109375 21.72265625 C-22.4375 20.3125 -22.4375 20.3125 -23.4375 19.3125 C-23.70337831 16.25489943 -23.87159881 14.10409195 -22.375 11.375 C-19.16910802 9.6169302 -16.90664259 10.44521435 -13.4375 11.3125 C-10.97013491 12.50066804 -8.75954722 13.84344972 -6.4375 15.3125 C-6.38851563 14.39726562 -6.33953125 13.48203125 -6.2890625 12.5390625 C-6.21429688 11.35054688 -6.13953125 10.16203125 -6.0625 8.9375 C-5.99289062 7.75414062 -5.92328125 6.57078125 -5.8515625 5.3515625 C-5.25151864 0.94746698 -4.41240996 0.40112818 0 0 Z " fill="#FEFAF9" transform="translate(344.4375,346.6875)"/>
<path d="M0 0 C2.77042109 2.77042109 2.39796106 4.76533805 2.625 8.625 C2.69976562 9.81351562 2.77453125 11.00203125 2.8515625 12.2265625 C2.92503906 13.59941406 2.92503906 13.59941406 3 15 C3.59167969 14.6390625 4.18335938 14.278125 4.79296875 13.90625 C5.58316406 13.4421875 6.37335938 12.978125 7.1875 12.5 C7.96480469 12.0359375 8.74210937 11.571875 9.54296875 11.09375 C12.27334863 9.87831857 14.04408325 9.71040005 17 10 C18.8125 11.125 18.8125 11.125 20 13 C20.5 15.9375 20.5 15.9375 20 19 C17.8125 21.125 17.8125 21.125 15 23 C13.6078125 24.11375 13.6078125 24.11375 12.1875 25.25 C11.465625 25.8275 10.74375 26.405 10 27 C10.63808594 27.33773438 11.27617187 27.67546875 11.93359375 28.0234375 C12.75988281 28.46945312 13.58617187 28.91546875 14.4375 29.375 C15.26121094 29.81585938 16.08492187 30.25671875 16.93359375 30.7109375 C19 32 19 32 20 34 C20.3125 36.9375 20.3125 36.9375 20 40 C18.3125 41.9375 18.3125 41.9375 16 43 C12.22370821 42.55943262 9.45338704 41.33853872 6.1875 39.4375 C5.39730469 38.98246094 4.60710937 38.52742188 3.79296875 38.05859375 C2.90544922 37.53458984 2.90544922 37.53458984 2 37 C2.05220703 38.35544922 2.05220703 38.35544922 2.10546875 39.73828125 C2.13253906 40.91777344 2.15960938 42.09726562 2.1875 43.3125 C2.23970703 45.07013672 2.23970703 45.07013672 2.29296875 46.86328125 C2 50 2 50 0.7109375 51.92578125 C-1 53 -1 53 -4.5625 52.875 C-8 52 -8 52 -10 49 C-10.4140625 46.30078125 -10.4140625 46.30078125 -10.625 43.3125 C-10.69976562 42.31863281 -10.77453125 41.32476562 -10.8515625 40.30078125 C-10.92503906 39.16189453 -10.92503906 39.16189453 -11 38 C-11.59167969 38.37253906 -12.18335938 38.74507813 -12.79296875 39.12890625 C-13.58316406 39.60199219 -14.37335938 40.07507813 -15.1875 40.5625 C-15.96480469 41.03816406 -16.74210938 41.51382813 -17.54296875 42.00390625 C-20.51827151 43.21011007 -21.97503473 42.94880867 -25 42 C-26.875 40.8125 -26.875 40.8125 -28 39 C-27.84887555 35.16977691 -27.56889274 33.5270767 -24.71484375 30.8828125 C-23.79832031 30.30273438 -22.88179687 29.72265625 -21.9375 29.125 C-21.01839844 28.52945312 -20.09929687 27.93390625 -19.15234375 27.3203125 C-18.44207031 26.88460938 -17.73179687 26.44890625 -17 26 C-17.62648437 25.67386719 -18.25296875 25.34773438 -18.8984375 25.01171875 C-20.12433594 24.35623047 -20.12433594 24.35623047 -21.375 23.6875 C-22.18710938 23.25824219 -22.99921875 22.82898438 -23.8359375 22.38671875 C-26 21 -26 21 -28 18 C-27.8125 14.9375 -27.8125 14.9375 -27 12 C-24 10 -24 10 -20.75 10.125 C-16.45133732 11.12802129 -13.70887345 12.65356986 -10 15 C-10.05220703 13.75283203 -10.05220703 13.75283203 -10.10546875 12.48046875 C-10.13253906 11.39378906 -10.15960938 10.30710937 -10.1875 9.1875 C-10.22230469 8.10855469 -10.25710937 7.02960938 -10.29296875 5.91796875 C-10 3 -10 3 -8.7109375 1.1328125 C-5.8805362 -0.74119749 -3.27957019 -0.29814274 0 0 Z " fill="#FEFAF9" transform="translate(171,347)"/>
<path d="M0 0 C3.5 0.5 3.5 0.5 5.20703125 2.171875 C6.81525799 5.06765488 6.80500628 6.95982407 6.6875 10.25 C6.66042969 11.23484375 6.63335937 12.2196875 6.60546875 13.234375 C6.57066406 13.98203125 6.53585937 14.7296875 6.5 15.5 C7.06847656 15.12746094 7.63695312 14.75492187 8.22265625 14.37109375 C15.31855972 10.02352017 15.31855972 10.02352017 19.5 10.5625 C20.49 10.871875 21.48 11.18125 22.5 11.5 C23.93735246 14.37470493 23.88172649 16.31894588 23.5 19.5 C20.5373501 22.4626499 17.08067345 24.36363181 13.5 26.5 C14.221875 26.92410156 14.94375 27.34820312 15.6875 27.78515625 C18.48502212 29.55303481 21.04127144 31.28198612 23.5 33.5 C24.25 37.3125 24.25 37.3125 23.5 40.5 C21.5 42.5 21.5 42.5 18.3125 42.875 C13.63424503 42.41484377 11.39596028 41.04430059 7.5 38.5 C7.47421875 39.24765625 7.4484375 39.9953125 7.421875 40.765625 C6.95948718 48.79435897 6.95948718 48.79435897 4.75 52.1875 C2.021571 53.77908358 0.60683426 54.05763692 -2.5 53.5 C-4.140625 52.390625 -4.140625 52.390625 -5.5 50.5 C-5.79296875 47.36328125 -5.79296875 47.36328125 -5.6875 43.8125 C-5.66042969 42.63300781 -5.63335937 41.45351563 -5.60546875 40.23828125 C-5.57066406 39.33464844 -5.53585937 38.43101562 -5.5 37.5 C-6.35271484 38.04140625 -6.35271484 38.04140625 -7.22265625 38.59375 C-12.12439106 41.53970081 -15.60391968 43.34229719 -21.5 42.5 C-23.5 40.5 -23.5 40.5 -24.25 37.3125 C-23.3358032 32.66533291 -22.27985274 32.18917733 -18.5 29.5625 C-16.84780612 28.51840525 -15.18514938 27.49002526 -13.5 26.5 C-14.13808594 26.07847656 -14.77617187 25.65695312 -15.43359375 25.22265625 C-16.25988281 24.67480469 -17.08617187 24.12695312 -17.9375 23.5625 C-19.17306641 22.74458984 -19.17306641 22.74458984 -20.43359375 21.91015625 C-22.5 20.5 -22.5 20.5 -23.5 19.5 C-23.76587831 16.44239943 -23.93409881 14.29159195 -22.4375 11.5625 C-19.23160802 9.8044302 -16.96914259 10.63271435 -13.5 11.5 C-11.03263491 12.68816804 -8.82204722 14.03094972 -6.5 15.5 C-6.55220703 14.37851562 -6.55220703 14.37851562 -6.60546875 13.234375 C-6.63253906 12.24953125 -6.65960938 11.2646875 -6.6875 10.25 C-6.73970703 8.78820312 -6.73970703 8.78820312 -6.79296875 7.296875 C-6.28525679 2.44991817 -4.81418752 0.68774107 0 0 Z " fill="#FEFAF9" transform="translate(285.5,346.5)"/>
<path d="M0 0 C3.4375 0.375 3.4375 0.375 5.4375 2.375 C5.6328125 5.6328125 5.6328125 5.6328125 5.5625 9.5 C5.54445312 10.78132813 5.52640625 12.06265625 5.5078125 13.3828125 C5.48460937 14.37023437 5.46140625 15.35765625 5.4375 16.375 C6.39849609 15.70791016 6.39849609 15.70791016 7.37890625 15.02734375 C15.32703869 9.82729883 15.32703869 9.82729883 19.5 10.375 C22.4375 11.375 22.4375 11.375 23.4375 13.375 C23.8125 16.25 23.8125 16.25 23.4375 19.375 C20.4748501 22.3376499 17.01817345 24.23863181 13.4375 26.375 C14.159375 26.79910156 14.88125 27.22320312 15.625 27.66015625 C23.22463006 32.46270024 23.22463006 32.46270024 24.3125 37.125 C23.4375 40.375 23.4375 40.375 21.75 42.375 C18.79030198 43.65486941 17.52200457 43.21416668 14.4375 42.375 C11.98046875 41.18359375 11.98046875 41.18359375 9.625 39.8125 C8.83480469 39.35746094 8.04460937 38.90242188 7.23046875 38.43359375 C6.34294922 37.90958984 6.34294922 37.90958984 5.4375 37.375 C5.48970703 38.73044922 5.48970703 38.73044922 5.54296875 40.11328125 C5.57003906 41.29277344 5.59710938 42.47226562 5.625 43.6875 C5.67720703 45.44513672 5.67720703 45.44513672 5.73046875 47.23828125 C5.4375 50.375 5.4375 50.375 4.1484375 52.30078125 C2.4375 53.375 2.4375 53.375 -1.125 53.25 C-4.5625 52.375 -4.5625 52.375 -6.5625 49.375 C-6.9765625 46.67578125 -6.9765625 46.67578125 -7.1875 43.6875 C-7.26226562 42.69363281 -7.33703125 41.69976562 -7.4140625 40.67578125 C-7.48753906 39.53689453 -7.48753906 39.53689453 -7.5625 38.375 C-8.15417969 38.74753906 -8.74585938 39.12007813 -9.35546875 39.50390625 C-10.14566406 39.97699219 -10.93585938 40.45007813 -11.75 40.9375 C-12.52730469 41.41316406 -13.30460938 41.88882813 -14.10546875 42.37890625 C-17.09160069 43.58950028 -18.53750805 43.38672 -21.5625 42.375 C-23.5625 40.375 -23.5625 40.375 -24.3125 37.1875 C-23.3983032 32.54033291 -22.34235274 32.06417733 -18.5625 29.4375 C-16.91030612 28.39340525 -15.24764938 27.36502526 -13.5625 26.375 C-14.20058594 25.95347656 -14.83867187 25.53195312 -15.49609375 25.09765625 C-16.32238281 24.54980469 -17.14867187 24.00195312 -18 23.4375 C-19.23556641 22.61958984 -19.23556641 22.61958984 -20.49609375 21.78515625 C-22.5625 20.375 -22.5625 20.375 -23.5625 19.375 C-23.8125 15.9375 -23.8125 15.9375 -23.5625 12.375 C-20.5625 10.375 -20.5625 10.375 -17.3125 10.5 C-13.01383732 11.50302129 -10.27137345 13.02856986 -6.5625 15.375 C-6.61470703 14.25351562 -6.61470703 14.25351562 -6.66796875 13.109375 C-6.69503906 12.12453125 -6.72210938 11.1396875 -6.75 10.125 C-6.80220703 8.66320312 -6.80220703 8.66320312 -6.85546875 7.171875 C-6.3427764 2.27737199 -4.89499882 0.51526303 0 0 Z " fill="#FEFBFA" transform="translate(226.5625,346.625)"/>
<path d="M0 0 C0.928125 0.0825 1.85625 0.165 2.8125 0.25 C3.8125 3.25 3.8125 3.25 3.5625 6.1953125 C3.48683344 9.40043446 3.48683344 9.40043446 6 11.3671875 C6.928125 11.94726562 7.85625 12.52734375 8.8125 13.125 C10.2046875 14.01832031 10.2046875 14.01832031 11.625 14.9296875 C12.346875 15.36539062 13.06875 15.80109375 13.8125 16.25 C11.24697012 18.37572476 9.08593298 20.13455052 6 21.4375 C3.59587177 23.01625931 3.59587177 23.01625931 3.5 25.4375 C3.5 27.72902603 3.59733561 29.96925744 3.8125 32.25 C1.0625 33 1.0625 33 -2.1875 33.25 C-5.01391965 31.31613392 -5.99739718 30.09490143 -6.75 26.75 C-5.93997857 23.14990474 -4.20795843 22.28552633 -1.1875 20.25 C-0.63707031 19.87488281 -0.08664062 19.49976563 0.48046875 19.11328125 C1.91383881 18.1429476 3.36198919 17.19451867 4.8125 16.25 C4.10222656 15.88648438 3.39195312 15.52296875 2.66015625 15.1484375 C-4.85712855 11.03659869 -4.85712855 11.03659869 -6.5 7.125 C-5.98193617 2.35881277 -4.95846181 0.38889897 0 0 Z " fill="#D94329" transform="translate(259.1875,356.75)"/>
<path d="M0 0 C1 2 1 2 0.4375 5.1875 C0.5972029 9.06325446 0.5972029 9.06325446 3.22265625 11.015625 C5.76706104 12.77631017 8.33253649 14.43286519 11 16 C8.46115584 18.10361373 6.2919842 19.87391592 3.25 21.1875 C0.4934816 23.40802871 0.56674787 24.26892769 0.1875 27.6875 C0.10273877 29.1238593 0.03317239 30.56152439 0 32 C-2.25 32.75 -2.25 32.75 -5 33 C-7.76705793 31.05558091 -8.81752464 29.81100158 -9.5625 26.5 C-8.75247857 22.89990474 -7.02045843 22.03552633 -4 20 C-3.44957031 19.62488281 -2.89914063 19.24976563 -2.33203125 18.86328125 C-0.89866119 17.8929476 0.54948919 16.94451867 2 16 C1.28972656 15.64808594 0.57945312 15.29617188 -0.15234375 14.93359375 C-7.68398777 10.88784387 -7.68398777 10.88784387 -9.3125 6.3125 C-9 3 -9 3 -7.9375 1.0625 C-5.23787512 -0.41793945 -3.02429981 -0.20161999 0 0 Z " fill="#D94329" transform="translate(203,357)"/>
<path d="M0 0 C1 3 1 3 0.75 5.9453125 C0.67433344 9.15043446 0.67433344 9.15043446 3.1875 11.1171875 C4.115625 11.69726562 5.04375 12.27734375 6 12.875 C7.3921875 13.76832031 7.3921875 13.76832031 8.8125 14.6796875 C9.534375 15.11539062 10.25625 15.55109375 11 16 C8.43447012 18.12572476 6.27343298 19.88455052 3.1875 21.1875 C0.78337177 22.76625931 0.78337177 22.76625931 0.6875 25.1875 C0.6875 27.47902603 0.78483561 29.71925744 1 32 C-1.75 32.75 -1.75 32.75 -5 33 C-7.4375 31.4375 -7.4375 31.4375 -9 29 C-8.9140625 26.08984375 -8.9140625 26.08984375 -8 23 C-5.71484375 20.8828125 -5.71484375 20.8828125 -2.9375 19.125 C-2.01839844 18.52945312 -1.09929687 17.93390625 -0.15234375 17.3203125 C0.55792969 16.88460938 1.26820313 16.44890625 2 16 C1.37351562 15.59007812 0.74703125 15.18015625 0.1015625 14.7578125 C-0.71570313 14.21898437 -1.53296875 13.68015625 -2.375 13.125 C-3.18710937 12.59132813 -3.99921875 12.05765625 -4.8359375 11.5078125 C-7 10 -7 10 -9 8 C-8.8125 5 -8.8125 5 -8 2 C-4.77208445 -0.1519437 -3.71599191 -0.20086443 0 0 Z " fill="#D94228" transform="translate(321,357)"/>
<path d="M0 0 C1 2 1 2 0.5 4.9375 C-0.24846895 8.02952435 -0.24846895 8.02952435 1 11 C2.64034193 11.72904086 4.31301918 12.38655243 6 13 C7.6829392 13.97236487 9.35443434 14.96564444 11 16 C8.4787823 18.08900895 6.18766068 19.90616966 3.25 21.375 C0.70480613 22.84764468 0.70480613 22.84764468 0.25 25.9375 C0.1675 26.948125 0.085 27.95875 0 29 C-0.31674575 30.33737094 -0.64270064 31.67288808 -1 33 C-3.875 32.6875 -3.875 32.6875 -7 32 C-9.15215673 28.7717649 -9.54196166 27.74711127 -9 24 C-7.35546875 22.26953125 -7.35546875 22.26953125 -5.1875 20.8125 C-4.47980469 20.32394531 -3.77210938 19.83539063 -3.04296875 19.33203125 C-2.36878906 18.89246094 -1.69460937 18.45289063 -1 18 C-0.01 17.34 0.98 16.68 2 16 C1.28972656 15.64808594 0.57945312 15.29617188 -0.15234375 14.93359375 C-7.68398777 10.88784387 -7.68398777 10.88784387 -9.3125 6.3125 C-9 3 -9 3 -7.9375 1.0625 C-5.23787512 -0.41793945 -3.02429981 -0.20161999 0 0 Z " fill="#D94127" transform="translate(144,357)"/>
<path d="M0 0 C0.19389096 2.4788213 0.38040123 4.95780931 0.5625 7.4375 C0.61857422 8.14455078 0.67464844 8.85160156 0.73242188 9.58007812 C0.86190993 11.38427837 0.93521608 13.19231952 1 15 C0.67 15.33 0.34 15.66 0 16 C-3.4375 15.75 -3.4375 15.75 -7 15 C-9.32749345 11.50875983 -9.50299316 10.10777749 -9 6 C-6.69115651 3.13384946 -3.88632127 0 0 0 Z " fill="#DA472E" transform="translate(339,384)"/>
<path d="M0 0 C0.19389096 2.4788213 0.38040123 4.95780931 0.5625 7.4375 C0.61857422 8.14455078 0.67464844 8.85160156 0.73242188 9.58007812 C0.86190993 11.38427837 0.93521608 13.19231952 1 15 C0.67 15.33 0.34 15.66 0 16 C-3.4375 15.75 -3.4375 15.75 -7 15 C-9.32749345 11.50875983 -9.50299316 10.10777749 -9 6 C-6.69115651 3.13384946 -3.88632127 0 0 0 Z " fill="#DB4930" transform="translate(280,384)"/>
<path d="M0 0 C-0.33 5.28 -0.66 10.56 -1 16 C-3.97 14.35 -6.94 12.7 -10 11 C-10.36010591 3.67784643 -10.36010591 3.67784643 -8.9375 1 C-7 0 -7 0 0 0 Z " fill="#DB482E" transform="translate(340,347)"/>
<path d="M0 0 C0.06058594 0.83144531 0.12117187 1.66289062 0.18359375 2.51953125 C0.26738281 3.60621094 0.35117188 4.69289063 0.4375 5.8125 C0.55931641 7.43091797 0.55931641 7.43091797 0.68359375 9.08203125 C0.90212461 12.05989905 0.90212461 12.05989905 2 15 C1 16 1 16 -1.875 16.3125 C-5 16 -5 16 -6.875 14.5 C-8.50517055 10.87739877 -8.19772667 7.95453342 -8 4 C-1.125 0 -1.125 0 0 0 Z " fill="#D84026" transform="translate(220,384)"/>
<path d="M0 0 C0.06058594 0.83144531 0.12117187 1.66289062 0.18359375 2.51953125 C0.26738281 3.60621094 0.35117188 4.69289063 0.4375 5.8125 C0.55931641 7.43091797 0.55931641 7.43091797 0.68359375 9.08203125 C0.90212461 12.05989905 0.90212461 12.05989905 2 15 C1 16 1 16 -1.875 16.3125 C-5 16 -5 16 -6.875 14.5 C-8.50517055 10.87739877 -8.19772667 7.95453342 -8 4 C-1.125 0 -1.125 0 0 0 Z " fill="#D84026" transform="translate(161,384)"/>
<path d="M0 0 C-0.66 4.95 -1.32 9.9 -2 15 C-7 13 -7 13 -10 11 C-10.64608076 4.21615202 -10.64608076 4.21615202 -8.9375 1 C-7 0 -7 0 0 0 Z " fill="#D83F25" transform="translate(281,347)"/>
<path d="M0 0 C-0.33 4.95 -0.66 9.9 -1 15 C-6 13 -6 13 -9 11 C-9.65158371 4.15837104 -9.65158371 4.15837104 -7.875 1 C-6 0 -6 0 0 0 Z " fill="#D83F26" transform="translate(221,347)"/>
<path d="M0 0 C-0.33 4.95 -0.66 9.9 -1 15 C-6 13 -6 13 -9 11 C-9.65158371 4.15837104 -9.65158371 4.15837104 -7.875 1 C-6 0 -6 0 0 0 Z " fill="#D73E25" transform="translate(162,347)"/>
<path d="M0 0 C3.465 1.98 3.465 1.98 7 4 C6.34 4.66 5.68 5.32 5 6 C2.375 5.625 2.375 5.625 0 5 C0 3.35 0 1.7 0 0 Z " fill="#DB462B" transform="translate(351,384)"/>
<path d="M0 0 C3.465 1.98 3.465 1.98 7 4 C6.34 4.66 5.68 5.32 5 6 C2.375 5.625 2.375 5.625 0 5 C0 3.35 0 1.7 0 0 Z " fill="#DC482C" transform="translate(292,384)"/>
<path d="M0 0 C2.02045442 0.60183749 4.02111039 1.27306096 6 2 C6.33 2.66 6.66 3.32 7 4 C5.02 4.33 3.04 4.66 1 5 C0.67 3.35 0.34 1.7 0 0 Z " fill="#DB4529" transform="translate(174,385)"/>
<path d="M0 0 C2.02045442 0.60183749 4.02111039 1.27306096 6 2 C6.33 2.66 6.66 3.32 7 4 C5.02 4.33 3.04 4.66 1 5 C0.67 3.35 0.34 1.7 0 0 Z " fill="#DB4427" transform="translate(233,385)"/>
<path d="M0 0 C1.65 0 3.3 0 5 0 C5.33 0.66 5.66 1.32 6 2 C1.25 5 1.25 5 -1 5 C-0.67 3.35 -0.34 1.7 0 0 Z " fill="#D9442A" transform="translate(352,357)"/>
<path d="M0 0 C1.98 0 3.96 0 6 0 C5.25 1.9375 5.25 1.9375 4 4 C1.875 4.75 1.875 4.75 0 5 C0 3.35 0 1.7 0 0 Z " fill="#DA452A" transform="translate(292,357)"/>
<path d="M0 0 C1.98 0 3.96 0 6 0 C5.25 1.9375 5.25 1.9375 4 4 C1.875 4.75 1.875 4.75 0 5 C0 3.35 0 1.7 0 0 Z " fill="#DB462C" transform="translate(233,357)"/>
<path d="M0 0 C1.98 0 3.96 0 6 0 C5.67 0.99 5.34 1.98 5 3 C2.4375 4.1875 2.4375 4.1875 0 5 C0 3.35 0 1.7 0 0 Z " fill="#DA4429" transform="translate(174,357)"/>
</svg>
